<?xml version="1.0" encoding="utf-8"?>
<!-- Svg Vector Icons : http://www.onlinewebfonts.com/icon -->
<!DOCTYPE svg PUBLIC "-//W3C//DTD SVG 1.1//EN" "http://www.w3.org/Graphics/SVG/1.1/DTD/svg11.dtd">
<svg version="1.1" xmlns="http://www.w3.org/2000/svg" xmlns:xlink="http://www.w3.org/1999/xlink" x="0px" y="0px" viewBox="0 0 1000 1000" enable-background="new 0 0 1000 1000" xml:space="preserve">
<metadata> Svg Vector Icons : http://www.onlinewebfonts.com/icon </metadata>
<g><path d="M697.6,287.7c-53.4-58.7-119-88.1-196.9-88.1c-77.9,0-143.5,29.4-196.9,88.1c-53.4,58.7-80.1,129.7-80.1,213c0,83.2,26.7,154,80.1,212.3c53.4,58.3,119,87.5,196.9,87.5c77.9,0,143.5-29.2,196.9-87.5c53.4-58.3,80.1-129.1,80.1-212.3C777.7,417.4,751,346.5,697.6,287.7L697.6,287.7z M500,982c-138,0-254.1-46.1-348.5-138.2C57.2,751.7,10,637.1,10,500c0-137.1,47.2-251.7,141.5-343.8C245.9,64.1,362,18,500,18s254.1,46.1,348.5,138.2C942.8,248.3,990,362.9,990,500c0,137.1-47.2,251.7-141.5,343.8C754.1,935.9,638,982,500,982L500,982z"/></g>
</svg>